<svg xmlns="http://www.w3.org/2000/svg" viewBox="0 0 217.56 232.08"><defs><style>.cls-1{fill:none;}.cls-2{fill:#fed700;}.cls-3{fill:#115173;}</style></defs><g id="Layer_2" data-name="Layer 2"><path class="cls-1" d="M358.27,491.83c7.29-22.66,7.34-45.76,3.32-68.9-5.93-34.13-27-51.13-60.87-54.06-4.6-.39-9.21-.58-13.81-.67-4.17,0-8.34,0-12.51,0l-6.07,0c-1.83.42-2.22,1.75-2.21,4.33.14,26.14.08,52.28.08,78.43q0,35.22,0,70.44c0,4-1.37,9.27.63,11.57a3.8,3.8,0,0,0,1.08.84l9,.11c.62-.06,1.24-.11,1.82-.12,4.14,0,8.28,0,12.42.05a128,128,0,0,0,20.23-2C334.59,527.39,350.88,514.8,358.27,491.83Z" transform="translate(-206.34 -334.88)"/><path class="cls-2" d="M225.45,562.25c.15-37.28.09-74.57.09-111.85q0-55.18-.06-110.36c0-3.15.33-4.76,3.35-5.07q-8.87,0-17.74-.05c-4.3,0-4.73,1.55-4.72,5.13q.15,55.18.06,110.36c0,37.29.06,74.57-.09,111.86,0,3.67.8,4.71,4.61,4.69l17.7-.07C226,566.63,225.44,565.42,225.45,562.25Z" transform="translate(-206.34 -334.88)"/><path class="cls-2" d="M264.27,566.84l38.56,0c1,0,2,0,3,0Q285.07,566.82,264.27,566.84Z" transform="translate(-206.34 -334.88)"/><path class="cls-2" d="M275.85,334.9c-11.53,0-23.06,0-34.6.05C252.78,335,264.32,334.93,275.85,334.9Z" transform="translate(-206.34 -334.88)"/><path class="cls-2" d="M330.5,531.81c23.2-4.43,39.49-17,46.88-40,7.29-22.66,7.34-45.76,3.32-68.91-5.93-34.13-27.05-51.12-60.87-54.05-11-.95-21.95-.74-32.92-.66,4.6.09,9.21.28,13.81.67,33.82,2.93,54.94,19.93,60.87,54.06,4,23.14,4,46.24-3.32,68.9-7.39,23-23.68,35.56-46.88,40a128,128,0,0,1-20.23,2C304.31,534,317.46,534.3,330.5,531.81Z" transform="translate(-206.34 -334.88)"/><path class="cls-3" d="M230.2,334.91a11.52,11.52,0,0,0-1.37.06l12.42,0C237.57,335,233.89,334.93,230.2,334.91Z" transform="translate(-206.34 -334.88)"/><path class="cls-3" d="M228.65,566.89c.42,0,.88.06,1.41.06q17.1-.11,34.21-.11Q246.47,566.84,228.65,566.89Z" transform="translate(-206.34 -334.88)"/><path class="cls-3" d="M278.74,533.81c-.58,0-1.2.06-1.82.12,4.75.06,9.5.07,14.24-.07C287,533.8,282.88,533.76,278.74,533.81Z" transform="translate(-206.34 -334.88)"/><path class="cls-3" d="M420.65,418.32c-3.57-20.07-11.44-38.35-25.3-53.59-18.27-20.08-41.75-29-68.28-29.54-17.07-.33-34.15-.33-51.22-.29,10.7,0,21.41.09,32.11.3,26.53.52,50,9.46,68.28,29.54C390.1,380,398,398.26,401.54,418.33c5.5,30.91,4.67,61.52-7.47,90.92C381.29,540.18,358.3,559,325.12,565a120,120,0,0,1-19.25,1.84h16.07A122.63,122.63,0,0,0,344.23,565c33.19-6,56.17-24.83,68.95-55.76C425.32,479.84,426.15,449.23,420.65,418.32Z" transform="translate(-206.34 -334.88)"/><path class="cls-3" d="M266.21,521.41q0-35.22,0-70.44c0-26.15.06-52.29-.08-78.43,0-2.58.38-3.91,2.21-4.33-5.67,0-11.35.05-17-.14-3.65-.12-4.3,1.13-4.29,4.48.14,26.14.08,52.29.08,78.43q0,35.22,0,70.44c0,4-1.37,9.27.63,11.57,2.37,2.72,7.82.89,11.9.84,2.76,0,5.53,0,8.29,0a3.8,3.8,0,0,1-1.08-.84C264.84,530.68,266.21,525.38,266.21,521.41Z" transform="translate(-206.34 -334.88)"/><path class="cls-3" d="M286.91,368.2c-4.17-.08-8.34-.07-12.51,0C278.57,368.24,282.74,368.23,286.91,368.2Z" transform="translate(-206.34 -334.88)"/><path class="cls-3" d="M394.07,509.25c12.14-29.4,13-60,7.47-90.92C398,398.26,390.1,380,376.24,364.74c-18.27-20.08-41.75-29-68.28-29.54-10.7-.21-21.41-.28-32.11-.3-11.53,0-23.07.08-34.6.05l-12.42,0c-3,.31-3.36,1.92-3.35,5.07q.15,55.18.06,110.36c0,37.28.06,74.57-.09,111.85,0,3.17.59,4.38,3.2,4.64q17.81-.06,35.62,0,20.81,0,41.6,0A120,120,0,0,0,325.12,565C358.3,559,381.29,540.18,394.07,509.25ZM276.92,533.93c-3.19.32-6.75,1.08-9-.11-2.76,0-5.53,0-8.29,0-4.08,0-9.53,1.88-11.9-.84-2-2.3-.63-7.6-.63-11.57q0-35.22,0-70.44c0-26.14.06-52.29-.08-78.43,0-3.35.64-4.6,4.29-4.48,5.68.19,11.36.18,17,.14a8,8,0,0,1,2.08-.15c1.33,0,2.66.08,4,.1,4.17,0,8.34,0,12.51,0,11-.08,21.95-.29,32.92.66,33.82,2.93,54.94,19.92,60.87,54.05,4,23.15,4,46.25-3.32,68.91-7.39,23-23.68,35.56-46.88,40-13,2.49-26.19,2.22-39.34,2.05C286.42,534,281.67,534,276.92,533.93Z" transform="translate(-206.34 -334.88)"/></g></svg>