<svg id="Layer_1" data-name="Layer 1" xmlns="http://www.w3.org/2000/svg" viewBox="0 0 500.45 437.99"><path d="M430.07,291.2c-.18,21.56-5.57,41.58-17.68,59.6-16.64,24.79-30.67,51.23-47.8,75.7-8.5,12.16-17.31,24-29.22,33.15-1.63,1.26-2.44,3.1-3.37,4.87-5.92,11.22-11.59,22.59-17.93,33.58-3.54,6.13-8.24,11.57-12.75,17.1-15.27,18.7-39.77,20.3-59.92,13.81-13.28-4.28-23.66-12.64-32.61-22.5-11.41-12.58-22.36-25.61-33.74-38.25-5.58-6.2-8.09-14-8.66-22.33-1-14.49,6.53-26,20.85-30,9.24-2.62,16.3-7.1,21.61-15.27,4-6.11,9.84-10.75,16.37-14.31,5.72-3.12,6.09-4.26,3-10.11-6.07-11.4-11.56-23-14.45-35.7a8.32,8.32,0,0,1-.48-2.4c1.08-12.62-4.4-23.83-7.47-35.57-5.77-22.08-5.4-43.71,8.95-62.6,12.21-16.09,29.53-24.3,49.45-26.39,6.22-.65,12.48,1.36,18.05,4.6,2.13,1.25,3.59,1.61,5.45-.73,16.72-21,38.55-24.68,63.15-18.1C375.92,206,397,219.85,416.07,237c8.09,7.28,9.88,17.77,11.61,27.93A146.47,146.47,0,0,1,430.07,291.2Z" transform="translate(-48.11 -196.35)" style="fill:#200d0d"/><path d="M415.49,606.41c5.59,3.6,7.36,8.44,6,14.65-1.37,6.36-5.61,9.88-11.53,11-13,2.42-26.22.67-39.34,1.07-2.32.07-2.55-1.67-2.55-3.46v-45c0-1.79.24-3.52,2.56-3.46,12.29.35,24.61-1,36.87.75,5.84.82,10.5,3.34,12.44,9.23S421,602.4,415.49,606.41Z" transform="translate(-48.11 -196.35)" style="fill:#444"/><path d="M230.3,608.16c.18,5.31-.06,11.41-4,16.72-5.19,7-12.77,8.44-20.66,9.23a45.24,45.24,0,0,1-13.87-1.1c-9.84-2.09-16-9-16.83-19a85.21,85.21,0,0,1-.08-13c.86-12.3,9-19.33,23.81-20.73a41.16,41.16,0,0,1,14.82,1.33C225.92,585,230.3,591.77,230.3,608.16Z" transform="translate(-48.11 -196.35)" style="fill:#444"/><path d="M485,607c1.61,23-14.89,28.59-33.41,26.89a28.4,28.4,0,0,1-11.86-3.41c-7.82-4.55-10.27-11.67-10.3-20.24,0-10-.58-20.19,10.07-25.73,11.67-6.06,23.71-6,35.37-.07C484.29,589.2,485.64,598.07,485,607Z" transform="translate(-48.11 -196.35)" style="fill:#444"/><path d="M324.62,597.34c3.36-4.25,6.39-7.59,8.84-11.31,2.58-3.91,5.78-5.42,10.42-4.94a104.44,104.44,0,0,0,11.47.07c3.44,0,3.83,1.38,1.82,3.87-4.59,5.69-9,11.56-13.92,17-2.63,2.89-2.19,4.71.08,7.36,5.41,6.32,10.57,12.84,15.81,19.3.81,1,2.12,2,1.55,3.42s-2.26,1.05-3.53,1.08a38.46,38.46,0,0,0-5.48.06c-9.86,1.81-16.9-1.9-21.77-10.5-1.2-2.12-3.13-3.83-5.7-6.89,0,5.3-.13,9.32,0,13.33.14,3-1,4-4,4.09-15.18.46-15.18.55-15.18-14.41,0-10.82.11-21.64-.06-32.45-.07-3.69.68-5.71,4.92-5.25,4.43.48,10-1.73,13.08.85,3.32,2.76.68,8.47,1.23,12.86C324.27,595.29,324.36,595.75,324.62,597.34Z" transform="translate(-48.11 -196.35)" style="fill:#444"/><path d="M90,597.33c-4.25-.21-8.61.76-12.6-1.86-1.08-.7-2.92-.27-4.41-.28s-3.31.19-3.34,2.09c0,1.59,1.66,1.77,3,2,5.38.93,10.82,1.63,16.11,2.92,8.41,2.06,12.24,6,12.82,12.59.68,7.53-2.56,13-10.53,16.2a42.82,42.82,0,0,1-33,.11c-4.62-1.86-8.25-5-9.63-10.09-.83-3-.49-5.26,3.65-4.89,6.16.56,12.46-1.08,18.43,2.48,2.12,1.27,5.52.48,8.33.42,1.31,0,2.89-.59,3-2.11s-1.68-2.06-2.85-2.29c-4.88-1-9.86-1.39-14.68-2.53-6.12-1.45-11.84-3.84-14-10.61-2.68-8.58,2.15-16.3,12.39-19.43,10.62-3.25,21-2.85,30.54,3.47a20.08,20.08,0,0,1,3.37,3c2,2.1,4,4.8,3.06,7.49-1,2.85-4.41.89-6.7,1.34A16.55,16.55,0,0,1,90,597.33Z" transform="translate(-48.11 -196.35)" style="fill:#444"/><path d="M239.11,608.3c0-20.92,12.89-31.39,33.08-27.86,7.14,1.25,13.95,3.23,18.61,9.38a18.67,18.67,0,0,1,2.31,3.83c2.66,6.06,1.67,7.51-5,7.51-2.83,0-5.66-.11-8.48,0s-4.69-.37-6.21-3c-2.25-3.87-6.2-3.55-9.8-2.69s-4.73,3.71-4.52,7.3a87,87,0,0,1,0,9c-.12,3.13.7,5.74,3.9,6.72,3.4,1,7.49,1.83,9.59-1.57,2.44-4,5.66-3.91,9.33-3.82a66.38,66.38,0,0,0,8,0c4.69-.46,5,2,3.93,5.49a18.92,18.92,0,0,1-11,12.19c-10,4.35-20.32,4.8-30.48.73C241.46,627.17,238.27,618.25,239.11,608.3Z" transform="translate(-48.11 -196.35)" style="fill:#444"/><path d="M521.73,592.15c.24-.23.61-.42.69-.7,3.77-12.38,13.85-10.58,23.18-10.24,4.07.15,2.5,2.48,1.28,4.32-4,6-7.79,12-12.07,17.74-2.12,2.84-1.79,4.75.14,7.41,4.29,5.93,8.17,12.15,12.34,18.17,2.17,3.12,1.64,4.52-2.26,4.31a2.78,2.78,0,0,0-.5,0c-10.56,1.43-19.56-.23-22.69-12-2.31.15-2.49,1.52-3.15,2.37-2.45,3.11-3.43,8.31-7.22,9.18-5.23,1.2-10.93.59-16.4.33-3.31-.16-2-2.28-.94-3.84,4.4-6.67,8.69-13.42,13.34-19.9,1.9-2.64,1.74-4.42-.07-7-4-5.54-7.56-11.35-11.35-17-1.81-2.71-1.71-4.34,2.09-4.17h.5c9.71-.66,19.52-1.55,22,12.46Z" transform="translate(-48.11 -196.35)" style="fill:#444"/><path d="M129.22,614.78c0-4.83-.1-9.66,0-14.48.07-2.33-.59-3.29-3-3.18-3.82.17-7.66,0-11.48.08-2.5.08-3.83-.76-3.64-3.4a4.17,4.17,0,0,0,0-.5c-.63-12.13-.63-12.13,11.36-12.13,13.14,0,26.29.1,39.43-.07,3.45,0,4.63,1,4.66,4.54.11,11.53.24,11.53-11.08,11.53a27.07,27.07,0,0,1-3.49,0c-2.8-.37-3.71.67-3.66,3.56.18,9.32-.05,18.65.13,28,.07,3.53-1.17,4.53-4.63,4.56-14.59.13-14.59.24-14.59-14.45Z" transform="translate(-48.11 -196.35)" style="fill:#444"/><path d="M247.65,542.32h41.12v.49h-41.3Z" transform="translate(-48.11 -196.35)" style="fill:#f0efef"/><path d="M226.71,540.64c4.51-.7,8.44-.91,12.64.8C233.8,542.66,230.43,542.48,226.71,540.64Z" transform="translate(-48.11 -196.35)" style="fill:#f3f3f3"/><path d="M302,538H291.62C295.43,535.09,298.68,536.25,302,538Z" transform="translate(-48.11 -196.35)" style="fill:#e7e7e7"/><path d="M222.71,540.88c-3.55.25-5.71.89-8.21-1.17C217.29,539.05,219.36,538.74,222.71,540.88Z" transform="translate(-48.11 -196.35)" style="fill:#f4f4f4"/><path d="M205.4,538.37h3.9C208,539.73,206.73,539,205.4,538.37Z" transform="translate(-48.11 -196.35)" style="fill:#f0efef"/><path d="M391.13,359.26c-2.73,4.26-3.51,9.74-8,12.88-2.44-1.3-3.66-3.81-5.61-5.6s-3.85-2.68-5.6.33c-1.44,2.48-3.92,2.89-6.49,2.93-11.64.15-23.13,2.12-34.73,2.83-5.64.35-11.21-.46-16.89,0-14.55,1.15-29.18,1.22-43.76,2.13-7.15.45-14.16,1.84-21.28,2.42-2,.16-4,.5-5.73-.86-2.3-2.2-3.16-5.08-3.79-8.07,1.31-3.25,4.27-3.61,7.06-3.54,11.79.29,23.49-1.31,35.27-1.55s23.47-1.51,35.24-1.87c13.6-.4,27.07-2.81,40.71-2.73,3.24,0,6-.36,3.81-4.73a7.18,7.18,0,0,1-.22-4.08c.65-2,2.16-2.51,3.94-1.8,2.6,1,3.66.26,3.79-2.48.09-1.85.47-3.73,2.88-4,1.73,0,3.42,1.59,5.14-.85,1.54-2.18,4.17-.69,6.34-.29A49.4,49.4,0,0,1,391.6,348C390.65,351.72,391.71,355.53,391.13,359.26Z" transform="translate(-48.11 -196.35)" style="fill:#9d1d20"/><path d="M362.13,349.22v4c.95,2.9-1.2,2.52-2.27,1.66-7.59-6.13-16.12-3.65-24.42-2.83-12.07,1.21-24.19,1.12-36.27,1.79-19.71,1.09-39.4,2.46-59.13,3.19-2,.07-3.81,1.15-5.82,1.27-2.77-3.88-4.84-8-5-12.93-1.38-4.14,1.48-4.56,4.27-4.56,3.65,0,7.26.65,10.93.71,12.49.2,24.81-2,37.27-2.27,21.73-.55,43.36-3.43,65.13-2.85,3.8,1.31,7.54,2.78,11.43,3.85C361.46,342.4,361.57,345.91,362.13,349.22Z" transform="translate(-48.11 -196.35)" style="fill:#941b1d"/><path d="M348.15,337.22a11.23,11.23,0,0,1-3.31.94c-14.42-.47-28.73,1.27-43.09,1.89-15.51.68-31,1.58-46.45,3-6.69.6-13.54.9-20.31-.55-2.24-.49-5.69-1.66-5.79,2.9-2.32-5.52-5.69-10.86-3-17.25a17.35,17.35,0,0,0,10.73.52,51.8,51.8,0,0,1,12.36-1.14c24.37-.05,48.67-1.67,72.95-3.75a119,119,0,0,1,15.91-.08C345.18,325.71,349.61,331.73,348.15,337.22Z" transform="translate(-48.11 -196.35)" style="fill:#8f1a1c"/><path d="M281.22,513.33c-4.12,3.64-9.09,4-14.25,3.75-8.74-2.68-15.61-8.58-23-13.56-13.64-9.2-25.68-20.41-38-31.26a13.45,13.45,0,0,1-3.49-4.18,9.28,9.28,0,0,1,2.81-10.38,82.87,82.87,0,0,0,6.88-7.86c2.76-2.27,3.88-5.83,6.43-8.28,3.84-3.48,6.26-8.13,9.75-11.91,1.66-2.54,3.88-4.67,5.36-7.35,4.68-5.1,7.29-5.57,12.65-2.33,2.5,2.49,4.94,5,7.49,7.5,3.13,3.24,6.19,6.55,10,9.09a56.11,56.11,0,0,0,12.21,9.64,58.18,58.18,0,0,0,11.23,7.11c8.71,5.55,17.71,10.4,28.15,11.82a4,4,0,0,1,1.7,1q-2.53,4.53-5.08,9a16.06,16.06,0,0,0-7-3.09c-1.3-.4-2.64-.61-3.92-1.06a44.11,44.11,0,0,0-6.87-3,19.22,19.22,0,0,0-5.05-1.78,11.08,11.08,0,0,1-3.51-2.06c-2.27-1.7-4.46-3.5-6.84-5-1.4-1-2.78-1.94-4.09-3a10.09,10.09,0,0,0-3.22-1.71,12.47,12.47,0,0,1-2.82-1.43,15.08,15.08,0,0,1-3.21-3.07,13.59,13.59,0,0,0-3.85-3.19c-2.06-1.36-4-2.89-6-4.34a10.55,10.55,0,0,1-2-1.74,9.87,9.87,0,0,0-3.35-2.84,49.26,49.26,0,0,1-6-6.64c-2.34-2.83-4.12-2.51-6.24.36-4.25,5.74-8.76,11.3-13,17.06-1.24,1.32-2.35,2.76-3.54,4.13a36.31,36.31,0,0,0-5.62,6.86c-4.12,4.78-4.12,4.78.69,9.68.49.46,1,.95,1.42,1.43,1.51,1.59,3,3.17,4.7,4.61a39.06,39.06,0,0,1,5,4.17c.76.76,1.52,1.53,2.3,2.29a23.26,23.26,0,0,0,4.44,3.72c1.36,1,2.82,1.94,4.16,3a24.62,24.62,0,0,0,3.89,3.1,26,26,0,0,0,4,2.89c1.67,1,3.29,2,4.9,3a14,14,0,0,1,1.54,1.22,17.64,17.64,0,0,0,5.4,3.65c1.19.64,2.33,1.33,3.51,2,2.72,1.18,5,3.23,7.89,4.07C273.43,510.52,277.79,510.85,281.22,513.33Z" transform="translate(-48.11 -196.35)" style="fill:#231916"/><path d="M234.22,358.3c.7-3.05,3.16-3,5.5-3.08,14.56-.67,29.14-1.1,43.68-2.08,14.89-1,29.76-1.77,44.69-2,6.92-.1,13.75-1.75,20.72-2a13.88,13.88,0,0,1,10.8,4c.57.56,1.59,3.16,2.52.11.72,1.1,1.5,2.17,2.13,3.31,1.37,2.5.62,3.69-2.27,3.7-7.45,0-14.9-.19-22.32.95-18,2.78-36.39.48-54.36,4-5.21,1-10.38-.7-15.74-.2-7.21.67-14.47,2-21.79,1.26a13.31,13.31,0,0,0-8.56,2C236.78,365.31,234.57,362.28,234.22,358.3Z" transform="translate(-48.11 -196.35)" style="fill:#981c1f"/><path d="M243,376.3a460.44,460.44,0,0,1,53.4-4.42c7.66-.2,15.59-1.07,23.23-1.17,6.88-.08,13.82-.42,20.71-.58,9.26-.21,18.38-2.6,27.72-2,1.44.09,2.95-.68,2.83-2.19-.43-5.3,2.92-4.2,5.21-2.73,3.2,2.06,6.35,4.62,7,8.9-1.47,2.52-2,5.71-4.86,7.27-6.9-2.81-14-1.72-21.08-1.17-8.41.66-16.81,1.46-25.29.85-5.62-.41-11.29.43-16.83,1.32-7.75,1.23-15.5,1.29-23.29,1.55-14.23.48-28.44,1.45-42.58,3.17-4.46.53-5.18-2.7-5.91-5.91C243.18,378.24,243.09,377.27,243,376.3Z" transform="translate(-48.11 -196.35)" style="fill:#a11e21"/><path d="M248.18,384.24a15.83,15.83,0,0,1,8.55-2.08c16.38-.09,32.66-2.26,49.09-2.3,6.88,0,14.07-1.36,21.07-2.5,5.67-.92,11.37.63,17.2.09,8-.75,16.12-1.29,24.18-1.89,3.47-.26,7.83-.46,10,3.84-1.5,3.36-2.19,7.15-5.14,9.73-3.61-2-7.51-2.29-11.55-2.24-25.74.26-51.43,1.63-77.08,3.78-5.64.47-11.29.2-16.94.23a19.62,19.62,0,0,0-9.19,1.81C252.5,393.36,248.13,389.71,248.18,384.24Z" transform="translate(-48.11 -196.35)" style="fill:#a51f22"/><path d="M222.17,310.25c-2.36-2.16-2-5.26-2.72-8a5.5,5.5,0,0,1,4.34-.62c10.71,2.94,21.36-1,32.08-.18s21.19-.77,31.78-1.61c9.75-.76,19.52-1.59,29.28-2,5.51-.21,11.08,1.74,16.63-.11a13.8,13.8,0,0,1,4.3.15c4.85,1.47,10,1.63,14.77,3.44,2.9,1.11,5.73,2.4,7.74,4.94-1.31,4.32-4.9,4.25-8.39,4.38-2.87.35-5.72-1.22-8.31-.9a34.42,34.42,0,0,1-21.48-4.15c-4.09-2.18-9.7.35-13.92,2-5.45,2.13-10.69,2.07-16.07,1.73-6.74-.44-13.13,1.38-19.61,2.44a51.08,51.08,0,0,1-9.25,1.14c-8.12-.14-16.25-.55-24.35.65a36.76,36.76,0,0,1-10.42-.09C226.08,313.18,223.63,312.67,222.17,310.25Z" transform="translate(-48.11 -196.35)" style="fill:#a61f22"/><path d="M257.2,392.28c1.82-3.1,4.83-3.22,7.87-3,16.59.89,33.05-1.61,49.58-2.26,17.36-.68,34.69-1.87,52.08-1.78,3,0,5.77.17,6.37,3.95-1.73,3.21-3.38,6.49-5.89,9.21-8.58-7.63-18.55-3.77-28-3.17-10.08.64-20.11,1.73-30.24,1.74-12.08,0-24.12,1.55-36.22,1.34-2.06,0-3.83,1-5.55,2C261.25,400.67,257.13,397.37,257.2,392.28Z" transform="translate(-48.11 -196.35)" style="fill:#aa2023"/><path d="M222.17,310.25c6.39,2.46,12.9,2,19.59,1.45a205,205,0,0,1,23.91-.25c2.1.06,3.77.15,5.49-1.13a7.67,7.67,0,0,1,4.27-1.12c8.76-.57,17.46-1.48,26.32-1.41,4.44,0,9.57-2.13,14.25-3.64,5.28-1.7,9.7-.68,13.22,3,2.15,2.23,4.67,2.95,6.59,1.81,3.87-2.28,7.21-1.29,10.9-.08,1.68.55,3.61.29,5.43.39,1.22,1.21,2.89,1.22,4.38,1.72,1.74.59,3.87.89,3.74,3.52-1.23,1.54-3,1.92-4.79,2a37.33,37.33,0,0,0-12.66,2.83,12.83,12.83,0,0,1-4.9.16,6.6,6.6,0,0,1-3.77-2.16c-1.51-2.44-3.51-3.41-6.56-3.48-12-.26-23.8,2-35.76,2.49-9.93.37-19.89.94-29.82,1.37a221.3,221.3,0,0,0-27.72,2.49,9.5,9.5,0,0,1-10-4C223.18,314.37,222.16,312.49,222.17,310.25Z" transform="translate(-48.11 -196.35)" style="fill:#a01e21"/><path d="M266.23,400.21c.83-4,4.29-3.87,7-3.87,17.94.05,35.82-1.22,53.72-1.94,10.07-.41,20-2.35,30.08-2.28,4.91,0,8.36,1.53,10.13,6.23a18.79,18.79,0,0,1-5.86,9,1.8,1.8,0,0,1-1.88-.21c-5.44-5-11.9-5.16-18.7-4.25-18.62,2.48-37.42,1.8-56.11,3a40.08,40.08,0,0,0-7.34,1.25c-3.52.51-6.26-1.4-9.12-2.95C267,403.11,265.64,402.15,266.23,400.21Z" transform="translate(-48.11 -196.35)" style="fill:#ae2023"/><path d="M338.16,299.23h-4c-2.3-1.3-4.85-2.13-6.94-3.83a6.32,6.32,0,0,0-6.18-.87c-10.63,3.53-21.76,2.73-32.59,3-18.09.44-36.08,1.92-54.11,3.05-6.19.39-12.74-.21-16.86-6.3-1.88-3.17-1.26-6.63-1.17-10,1-.22,1.61.42,2.15,1.13,1.57,4,4.76,5.12,8.75,5.26,10.49.36,20.93-.44,31.38-1.11,16.09-1,32.18-1.83,48.31-1.89,3.2,0,6.23,0,8.53-3,1.53-2,3.68-1.43,5.3.06,3.79,3.49,8.22,4.08,13,3.31,3.63-.58,7.24,1,10.87.12a10.75,10.75,0,0,1,7.88,2.81,4.42,4.42,0,0,1,.39,4c-1.08,2.12-3.06,2.27-5.09,2.34A24.62,24.62,0,0,0,338.16,299.23Z" transform="translate(-48.11 -196.35)" style="fill:#b32024"/><path d="M410.26,252.89a11.3,11.3,0,0,1,2.86,8.27c0,5.37-2.11,8.16-7.44,9.32A84.75,84.75,0,0,1,390.83,272c-10.26.37-20.57.42-30.72,2.31a22.48,22.48,0,0,1-8.33.28c-5-.74-9.45,0-13.21,3.63-3.92.79-7.84,1.56-11.52-.83-.78-3.4-3-4-6-2.95-3.33,1.15-6.78,1.25-10.25,1.4-2.12,0-4.22.4-6.33.44-3.62.08-6.4-1.15-7.08-5.18a3.1,3.1,0,0,1,.9-2.43c5.15-2.88,10.92-2.95,16.48-2.93a586.92,586.92,0,0,0,65.6-3.9,54.12,54.12,0,0,1,13.93.08c6.61,1,11.41-1,14.29-7.16A3.77,3.77,0,0,1,410.26,252.89Z" transform="translate(-48.11 -196.35)" style="fill:#c72227"/><path d="M410.26,252.89c-.89,7.92-6.83,12.11-14.59,10.77-8.94-1.54-17.9,0-26.75,1-4.92.57-9.88.86-14.8,1.38a274,274,0,0,1-28.81,1.14,145.74,145.74,0,0,0-27.21,2.1c-3.14-1.52-4.09-3.8-2.42-7,4.55-2.52,9.6-2.43,14.55-2.7,21.91-1.19,43.92-.66,65.73-3.73,6.43-.91,13-.18,19.47-.32,7-.16,7.6-.76,7.77-7.71,0-1.33-.11-2.69.95-3.75C408.12,245.67,409.64,249,410.26,252.89Z" transform="translate(-48.11 -196.35)" style="fill:#cc2227"/><path d="M276.16,406.23c2.63-1.62,5.5-1.92,8.56-2.09,20.83-1.14,41.73-.71,62.48-3.58,5.56-.77,10.65,1.94,14.14,6.76a29.8,29.8,0,0,1-7.21,10.84c-4.09-6.72-10.41-7.65-17.61-7.36-22.34.91-44.68,1.72-67,3.39-2,.15-4,.49-5.9-.23-3.6-1.32-6.63-3.15-6.72-7.58,1.8-2.2,4.42-2.46,6.95-3a8.25,8.25,0,0,1,3.51.89C270.33,404.82,272.44,409.14,276.16,406.23Z" transform="translate(-48.11 -196.35)" style="fill:#b32024"/><path d="M404.15,244.07c.12.66.21,1.31.36,2,2.18,9.12.57,11.45-8.62,11.16-23.21-.73-46.13,3.72-69.38,3.46-10.36-.12-21.21-.62-31.48,2.68-2,1.71-3.91,1.4-5.82-.09q-.06-3.56-.1-7.11a8.38,8.38,0,0,1,1.57-.75c10.85-1.48,21.78-2.77,32.7-2.65,22.09.24,44-2.75,66.09-2.68,6.72,0,9.23-4,10.61-9.56Z" transform="translate(-48.11 -196.35)" style="fill:#d22127"/><path d="M324.12,452.16l-4.87,8c-2.88.74-4.95-1.32-7.3-2.23-5.65-2.21-11.34-4.31-16.87-6.84-4-3.23-9.28-3.91-13.28-7.06-3.42-3.89-8.49-5.57-12.17-9.12-2.36-3.4-6-5.42-9-8-2.47-2.95-5.77-5-8.26-8a24.8,24.8,0,0,0-4.85-6.27c-2-3.26-5.16-5.64-7.28-8.85-1.09-3.23-3.65-5.32-5.94-7.61l6.06-5.16c2.79.17,3.7,2.62,5,4.4a164.35,164.35,0,0,0,61,50.4C312.1,448.64,318.48,449.3,324.12,452.16Z" transform="translate(-48.11 -196.35)" style="fill:#781314"/><path d="M341.46,211.13c9.24,2.05,18.56,3.86,26.67,9.2,1.58,4.22-1.55,6.17-4.25,7.84a23,23,0,0,1-12.8,3.49,17.28,17.28,0,0,0-6.36.86c-2.68-1.63-2.37-5.29-4.82-7.07-.44-.45-.87-.92-1.33-1.34a10.92,10.92,0,0,0-3.15-1.83,10.71,10.71,0,0,0-3.66-.82,13.63,13.63,0,0,1-2-.36,11.47,11.47,0,0,0-4.16-.42c-2.92.11-5.86-.37-8.73.42-1.32.42-2.74.39-4,1a10.44,10.44,0,0,0-3.33,2.06c-2.1,1.44-4,3-4.58,5.71-.46,1.24-.28,2.59-.7,3.83-.95,2.72-3.14,3.18-5.52,2.65-2.58-.57-4.48-1.92-3.54-5.09.4-5.25,4.15-8.45,7.64-11.51,2.66-2.32,6.16-3.69,9.28-5.49C321.8,212.31,331.41,209.63,341.46,211.13Z" transform="translate(-48.11 -196.35)" style="fill:#ed1f25"/><path d="M203.53,468.09c16.37,15,33,29.75,51.89,41.64,3.87,2.43,7.7,4.9,11.55,7.35-7.74,2.87-15-.33-22-2.52-10.33-3.21-18.31-10.36-25.85-17.82-2.91-2.88-5.23-6.36-7.83-9.56-2-3.75-5.42-6.26-8.27-9.25-1.95-2-3.25-4.26-2.89-7.11C200.35,469,200.81,467,203.53,468.09Z" transform="translate(-48.11 -196.35)" style="fill:#d62127"/><path d="M400.08,240.49c2,7.5-3.16,11.71-12.43,11.58-13-.19-26,0-39,1.8a37,37,0,0,1-5.95.35,360.89,360.89,0,0,0-51,2.58c-.51.06-1.09-.53-1.64-.81-.1-4.23,1.72-6.89,6.09-7.49,11.57-1.19,23.15-1.81,34.78-2.05,18.75-.38,37.44-2.13,56.17-2.94,4.74-.2,4.75-4.49,7.12-6.7A9.32,9.32,0,0,1,400.08,240.49Z" transform="translate(-48.11 -196.35)" style="fill:#d92127"/><path d="M394.24,236.81c-.42,7.61-1.29,8.18-8.92,8.48-23.28.92-46.5,3.1-69.84,3.27-5.6,0-11.58-.26-17.2,1.59a2.68,2.68,0,0,1-3.12-1c-.7-4.51,2.69-6.67,5.32-9.27,4.1,1,8.19.66,12.28,0,6.47-.15,12.92.61,19.38,0,11.42,1.34,22.81-.82,34.23-.25,3.49.17,6.86-1.05,10.29-1.6,4.61-.75,6.2-4.54,8.46-7.72C389,231.32,391.56,234.13,394.24,236.81Z" transform="translate(-48.11 -196.35)" style="fill:#dd2126"/><path d="M217.48,294.27c6.8,3.86,13.74,5,21.84,4.35,12.35-.93,24.68-3.14,37.16-2.41,11.3.66,22.51-1.52,33.83-1.1,2.7.1,5.56-.92,8.17-1.92,7.15-2.74,11.53,1.25,15.68,6a9.09,9.09,0,0,0-5.28,1.13,5.1,5.1,0,0,1-3.84.79c-13.81-3.72-27.46.28-41.13,1.1-13.12.79-26.22.94-39.33,1-1.83,0-3.91-.41-5.43.31-6.89,3.29-13.17-.64-19.7-1.29A12.27,12.27,0,0,1,217.48,294.27Z" transform="translate(-48.11 -196.35)" style="fill:#ad2023"/><path d="M240.26,235.37c9.13-5.6,18.55-10.19,29.78-8.16,8.73,1.58,10.56,4.5,8.22,13-.52,1.91-.78,3.9-1.15,5.86-2,1.67-2.91-.17-3.92-1.31-3.86-4.36-3.84-4.38-7.87-.21a5.6,5.6,0,0,1-1.63,1.11c-5.29,3-11.06,3.38-16.94,3.1-3.5-.17-7.34-.22-9.11-3.9S238,238.18,240.26,235.37Z" transform="translate(-48.11 -196.35)" style="fill:#e42026"/><path d="M338.16,318.23h5c1.81.73,3.06,1.79,2.4,4-1.5,2.34-4.2,2.12-6.39,3-16-.22-32,1.62-47.92,2.82-13,1-26.11.91-39.17,1.14-6,.1-11.83.26-17.72,1.66-2.71.65-6.85,2.32-8.13-2.73,0-2.29.09-4.58.13-6.87,1.43-.21,2,.89,2.78,1.75,1.12,1.31,2.59,1.19,4.12,1.12,23.8-1,47.52-3.36,71.37-3.84C315.77,320.06,327,318.63,338.16,318.23Z" transform="translate(-48.11 -196.35)" style="fill:#951b1e"/><path d="M345.15,289.23c-6.91.51-13.82,1.44-20.72-.08a4.19,4.19,0,0,1-2.25-1c-2.75-3.3-5.22-5.73-7.59.39-.46,1.17-2.44.65-3.75.68-14.92.34-29.88.15-44.76,1.16-13.22.9-26.4,1.94-39.67,1.94-5.29,0-8.06-2.19-9.13-7.1,1.48-.75,2.94-.24,4.34.19a29.78,29.78,0,0,0,13.29,1.08c8.91-1.37,17.82-1.2,26.73-.81,4.15.18,7.57-2.36,11.57-2.43,4.35,3.71,8.28,2.59,12-1.07,11.16-.64,22.37.29,33.51-1,5.36-.61,10.4,1.75,15.71,1.3a38.42,38.42,0,0,1,7.77,3.27C343.53,286.54,345.42,287,345.15,289.23Z" transform="translate(-48.11 -196.35)" style="fill:#b82125"/><path d="M263,412.29c5.1,1.67,10.12-.41,15.18-.46,2.55,0,5.22-.6,7.87-.62,18.88-.11,37.67-2.42,56.57-2,7.29.15,10.32,2.45,11.48,9l-3,4c-5.18-5.46-11.92-4.31-18.36-4.3-19.09,0-38.13,1-57.14,2.73a17.6,17.6,0,0,1-3.48,0C265.81,419.15,263.32,416.88,263,412.29Z" transform="translate(-48.11 -196.35)" style="fill:#b62125"/><path d="M271,419.29c23.51-2.16,47.07-3.15,70.68-3.21,5,0,8.26,1,9.45,6.13-1,2.16-1.73,4.57-4.05,5.84-4.64-3.28-9.92-3.75-15.26-3-8.46,1.16-17,1-25.41.77a181.08,181.08,0,0,0-26.34,1.75C274.06,426.11,271.34,423.63,271,419.29Z" transform="translate(-48.11 -196.35)" style="fill:#ba2125"/><path d="M279.08,426.26c14.74-3.17,29.7-1.6,44.56-2.15,5.43-.2,10.84-1.21,16.32-.9,3.35.18,6.23,1.07,7.15,4.84-4.86,6.82-9.35,14-16.86,18.37a2.11,2.11,0,0,1-.48-2.32c1.25-1.76,3.05-3.07,4.21-4.9,2.47-3.87,1.08-6.94-3.43-7.33a69.41,69.41,0,0,0-11-.07c-9.6.7-19.29.52-28.79,2.49C284.54,433.93,280.5,431.15,279.08,426.26Z" transform="translate(-48.11 -196.35)" style="fill:#bf2126"/><path d="M227.27,323.23l-.92-2c-1-1.54-2.52-2.88-2.09-5,7.34,5.2,15,.85,22.46.54,2.25-.09,4.57-.47,6.88-.54,11.74-.38,23.49-.57,35.22-1.17,13.17-.68,26.24-2.83,39.46-2.86,3.66,0,6,1.4,6.88,5a326,326,0,0,1-37.63,2.83c-13.24.28-26.49,1.26-39.66,2.86a95.08,95.08,0,0,1-18.86-.05C235.06,322.56,231.23,325.15,227.27,323.23Z" transform="translate(-48.11 -196.35)" style="fill:#9c1d20"/><path d="M264.25,244.25c3.81-7,5.45-7,9.82-.18.75,1.19,1.41,2.27,3,2-1.67,4.85-1.37,10-.78,14.79.93,7.57-2.77,14.18-3.19,21.39-1.5.27-2.07-.94-2.88-1.78-2.35-3.74-7.12-2.2-10.07-4.62s-3.77-5.75-3.07-9.47a6.22,6.22,0,0,1,2.75-3.7c3.32-1.44,6.79-.64,10.76-.56-.76-3.25-3.25-5.36-4.41-8.12a25.24,25.24,0,0,1-2-3.11C263.41,248.69,262.34,246.46,264.25,244.25Z" transform="translate(-48.11 -196.35)" style="fill:#781314"/><path d="M385.12,230.23c.6,5.36-2.3,7.89-7.12,9.06-5.16,1.26-10.33,2.38-15.69,2-10.06-.83-20.11,1.94-30.16,0-.32-.84.17-1.31.78-1.72,1.71-.67,3.54-1,5.05-2.17,2.39-1.16,4.22-3.28,6.87-4,8.63,1.47,16.41-2.66,24.64-3.79,4.21-.57,1.73-4.84,3.73-6.62A40.52,40.52,0,0,1,385.12,230.23Z" transform="translate(-48.11 -196.35)" style="fill:#e32026"/><path d="M203.53,468.09c-4.49,2.54-2.11,5.66-.36,8.25,1.56,2.3,3.85,4.13,5.88,6.09,1.36,1.33,2.49,2.69,2.23,4.75-6.54-6.39-13.41-12.45-19.11-19.66-3.71-3.2-5.37-7-3.92-11.95,1.17-3.94,3.47-6.71,7.56-7.88a35.91,35.91,0,0,1,13.84-.85c1.8.2,3.71.72,3.57,3.25-1.57,2.5-3,5.24-5.4,6.94C203.81,459.84,202.58,463.48,203.53,468.09Z" transform="translate(-48.11 -196.35)" style="fill:#cd2127"/><path d="M359.14,273.24a33,33,0,0,1,11.11-2.07c11.54-.49,23.06-1.14,34.57-2,4.67-.35,7.31-3.48,8.3-8,1.43,1.4,1.18,3.15,1.05,4.88,1.07,7.91-1.87,11.81-9.66,12.6-4.09.42-8.22.08-12.33.2-2.95.09-6,.1-8.28,2.4a3,3,0,0,1-1.54.57c-7.05-1.26-13.76-3.92-20.81-5.24C360,276,358,275.75,359.14,273.24Z" transform="translate(-48.11 -196.35)" style="fill:#c02226"/><path d="M335.16,283.24c-1.09.33-2.27,1.09-3.27.91-6.94-1.26-13.8-.87-20.83-.5-6.62.34-13.35-.67-20.08.43-1.89.31-4.8,1.53-5.79-1.89a10.29,10.29,0,0,1,3.06-5.88c4-.47,8-.71,10-5.08,1.61,3.14,3.92,4.45,7.54,3.37,1.68-.5,3.57-.27,5.36-.36,2.59.77,5.44.67,7.61,2.74,1.19,1.13,2.6,1,4,.12s2.56-2.28,4.34-.86c3.85,2.07,8,.49,12,1,2.41-.46,3.12,1.09,3.53,3C341.87,285.47,338.3,283.81,335.16,283.24Z" transform="translate(-48.11 -196.35)" style="fill:#bf2126"/><path d="M265.52,251.11l1.74,2c1.29,3.54.2,6.75-3.57,6.29-9.78-1.18-18.85,3.21-28.58,2.61-11.11-.69-14-5-8.89-14.93,2.2-3.78,4.83-7.12,9.05-8.83,1.54,1.7.49,3.43,0,5.12-1.08,3.9.5,6.28,4.08,7.78a14.56,14.56,0,0,0,9.66.35C254.48,250.15,260,249,265.52,251.11Z" transform="translate(-48.11 -196.35)" style="fill:#d62127"/><path d="M279.08,426.26c2.95,3.39,6.25,6.24,10.86,7.09,2.83,1,5.14,3.07,8,4.13,7.39,3.8,14.78,7.62,22.82,10,1.71.5,3.58,1,4.43,2.9l-1,1.82c-6.12.06-11.66-2.15-17.09-4.62-25.3-11.5-45.86-28.83-62.53-50.93-1.4-1.85-2.78-3.7-4.17-5.55l.94-1.84c2.84-1.51,3.94,1,5.5,2.38,3.14,5.13,7.45,9.41,10.5,14.6,1.32,2.6,2.67,5.18,5.77,6.09,1.46,3.71,4.7,5.38,8,7C272.52,423,275.86,424.55,279.08,426.26Z" transform="translate(-48.11 -196.35)" style="fill:#f05656"/><path d="M184.21,458.37c-3.27-2.93-4.1-6.76-4-10.92a10,10,0,0,1,4-10.52c4.2-3.3,8.69-6.14,13.91-7.58a6.67,6.67,0,0,1,5.32.35c2.7,3.47,4.91,7.1,3.91,11.8-2.37,1.7-5.12,1.13-7.73,1.2-5.64.15-9.38,2.54-11.12,8.15C187.59,453.57,187.46,456.91,184.21,458.37Z" transform="translate(-48.11 -196.35)" style="fill:#c12226"/><path d="M226.22,247.13c-2.69,16.13,1.42,13.08,11.67,13.11,4.27,0,8.46.15,12.59-1.74a13.57,13.57,0,0,1,9.14-.52c5.68,1.44,7.15.19,7.64-4.82,1.59,3.53,5.12,6.09,5.23,10.83a55.85,55.85,0,0,0-12-.65c-10.79,3-21.69,4.53-32.79,2-5.32-1.21-7.23-3.52-7.41-8.13C221.15,253.2,222.81,249.64,226.22,247.13Z" transform="translate(-48.11 -196.35)" style="fill:#d32127"/><path d="M248.24,412.21a10.71,10.71,0,0,1,4.89,6c-1.84,2.09-4.51,2.35-6.94,3.14-5.16-3.65-7.24-3.29-11.83,2.06a51.4,51.4,0,0,0-12.87-.59c-4.78.31-9.27,1.22-11.18,6.52-3.38-1.15-3.32-3.43-2-6.12l5.17-7c7.2-4.14,15.32-3.82,23.16-4.54C240.45,411.32,244.51,409.53,248.24,412.21Z" transform="translate(-48.11 -196.35)" style="fill:#b52125"/><path d="M184.21,458.37c1-2.65,2-5.29,2.89-8,2.54-7.34,5-9.13,12.78-9.21l7.49,0c1.39-1.82,3.43-2.11,5.5-2.36,2.59.29,6.31-1.52,6.41,3.43-2.21,2.47-2.8,6.2-6.06,7.86-3.92-3.83-8.83-2-13.1-1.66-10.45.85-13.71,8.49-8.11,17.63.23.37.12,1,.16,1.45A19.17,19.17,0,0,1,184.21,458.37Z" transform="translate(-48.11 -196.35)" style="fill:#c72227"/><path d="M325.16,450.34c-9.72-3.09-19.45-6.15-27.9-12.16a3,3,0,0,1,1.5-1.24,85,85,0,0,1,26-1.78c4.61.35,6.61,4.55,5.45,9,0,.74.05,1.48.08,2.22A7.69,7.69,0,0,1,325.16,450.34Z" transform="translate(-48.11 -196.35)" style="fill:#c82227"/><path d="M295.25,450.17c8.17,2.92,16.46,5.58,24,10l-2.11,5.91c-7.83.7-14.49-2.82-21.15-6.11-3.4-1.68-6.49-4-9.72-6C287.62,448.86,291.54,449.77,295.25,450.17Z" transform="translate(-48.11 -196.35)" style="fill:#d02127"/><path d="M271.34,280.09l1.8,2.19a4.62,4.62,0,0,1,.07,1c-6.06,6.05-13.78,4-20.85,3.73a89.24,89.24,0,0,0-13.22.8c-7.49.79-14.92,1.25-21.86-2.56l-1-1c-1.44-3.42-2-6.86-.22-10.35a3.73,3.73,0,0,1,1.69,2.85c1.15,3.38,4.37,3.77,7.09,4.78a20.79,20.79,0,0,0,11.79.63C248.12,279.65,259.81,281.29,271.34,280.09Z" transform="translate(-48.11 -196.35)" style="fill:#bc2126"/><path d="M252.11,499.24l-1-.71c-.39-2.95,2.23-3.31,3.9-4.31,11.43-6.85,24.29-10.45,36.35-15.89a138.73,138.73,0,0,0,14-7.39c2.35,1.24,6.46-.33,6.76,4.21l-2,2c-17.32,6.11-33.16,15.61-50.36,22C257.13,500.15,254.65,500.93,252.11,499.24Z" transform="translate(-48.11 -196.35)" style="fill:#c29b78"/><path d="M216.28,277.24c-.07-1.12-.13-2.23-.19-3.35.46-2.89-.93-6,1.16-8.7.15.07.37.11.44.23,4.42,8.44,11.67,8.23,19.58,6.68,4.55-.9,9.24-.25,13.86-.39,2.39-.08,4.79-.15,4.87-3.48.39-1,.72-2.1,2.15-2-.11,3.4.11,6.68,3.06,9,.24,2.48-1.69,3-3.38,3.57a20.7,20.7,0,0,1-7.86.94c-5.59-.22-11-.21-16.62,1.24S221.72,279.75,216.28,277.24Z" transform="translate(-48.11 -196.35)" style="fill:#c52227"/><path d="M248.24,412.21c-10,.91-20,1.37-29.87,3.44-1.6.34-3.26.38-4.89.56,1-3.09,3.31-5.09,5.73-7a118.76,118.76,0,0,1,13.51-6c2.7-1.07,5.65-2.1,8.46,0C243.35,406.36,246.9,408.42,248.24,412.21Z" transform="translate(-48.11 -196.35)" style="fill:#b22024"/><path d="M265.52,251.11c-4.55,1.62-9.38-.54-14,1.19-3.83,1.42-7.7,2.42-12,.66-6.34-2.6-7.76-5.49-4.89-11.8a13.37,13.37,0,0,0,.64-2.86c1.48-1.29,2.63-3.13,5-2.93-.21,1.28-.07,2.79-.7,3.82-2.86,4.71-1.45,7.24,4.87,8a38.37,38.37,0,0,0,19.82-2.91C263.88,246.69,265.08,248.83,265.52,251.11Z" transform="translate(-48.11 -196.35)" style="fill:#de2126"/><path d="M261.21,505.2l-3.06-2c1.47-2.86,4.15-4.32,6.91-5.42,11.28-4.49,22-10.09,32.92-15.43,2.69-1.32,5.51-2.6,8.32-.14a6.31,6.31,0,0,1-2.32,4.95c-4.83,4.33-11.18,5.7-16.8,8.48-6.09,3-12.35,5.7-18.39,8.83C266.33,505.76,263.86,506.35,261.21,505.2Z" transform="translate(-48.11 -196.35)" style="fill:#bd9470"/><path d="M306.3,482.23c-6.58-1.19-11.18,3.51-16.47,5.85-8,3.53-15.67,7.91-24,10.77-2.88,1-4.6,3.86-7.69,4.37-2.66-.35-4.41-2.07-6-4,5,.34,9.36-2.08,13.67-4C277,490.35,288,485,299.07,479.73c3.5-1.68,7-2.9,11-2.54C309.76,479.59,307.86,480.78,306.3,482.23Z" transform="translate(-48.11 -196.35)" style="fill:#c19875"/><path d="M383.11,281.24c.58-3.43,3.25-3.88,5.95-4,4.46-.13,8.92,0,13.38,0,8.24-.06,11.38-3.07,11.73-11.19a5.79,5.79,0,0,1,1,3.91c1.39,11.14-2.24,15.4-13.48,15.85a25.52,25.52,0,0,0-6.86.76C390.25,286.33,386.69,283.75,383.11,281.24Z" transform="translate(-48.11 -196.35)" style="fill:#b72125"/><path d="M258.15,266.25l-.92,2c-1.69,2.23-4.12,2.56-6.66,2.6a156.75,156.75,0,0,0-16.35.7,16.17,16.17,0,0,1-10.53-2.2c-3.24-2-6.35-4.55-4.48-9.26.09-1.05,0-2.16,1-2.87,1.1,4.26,4.42,5.89,8.24,6.9,7.71,2,15.43.32,23.09-.3,3-.25,5.9-.49,8.87-.47Z" transform="translate(-48.11 -196.35)" style="fill:#ce2227"/><path d="M219.21,260.08c1.44,7,5.85,10.73,14,10,6.58-.63,13.13-.58,19.69-.86a24.25,24.25,0,0,0,4.31-.94c.58,3.86-.91,5.37-4.94,5.06-7.27-.55-14.53.23-21.77.95-8.18.8-10.6-.9-13.27-9.06C217.3,263.25,217.34,261.32,219.21,260.08Z" transform="translate(-48.11 -196.35)" style="fill:#c92227"/><path d="M261.21,505.2c2.62.31,4.81-.89,7-2,11.68-5.85,23.4-11.62,35.73-16-1.43,3-2.86,6-5.68,8a6,6,0,0,1-3.59,2.47c-9.15,1.71-17,6.19-24.26,11.72a1.24,1.24,0,0,1-1.4-.15C265.79,509.15,263.93,506.35,261.21,505.2Z" transform="translate(-48.11 -196.35)" style="fill:#b88e6c"/><path d="M373.22,222.93c1.46,7.29,1.45,7.21-6.23,8.41a48,48,0,0,0-7.67,2.07c-5,1.65-9.95,2.5-15.09.84a1.34,1.34,0,0,1,0-2c.95-1.15,1.33-2.59,3.64-2.15,4.43.84,8.75-.27,13-1.87,3.79-1.45,6.47-3.77,7.28-7.9C370.28,220.31,371.7,221.72,373.22,222.93Z" transform="translate(-48.11 -196.35)" style="fill:#e91f25"/><path d="M414.22,314.25c-2.06,7.73-2.67,16.07-9.13,22-2.61.41-4.81,0-5.8-2.86-.27-3.73,2.27-6.79,2.49-10.42.58-2.62,1.23-5.22,3-7.39A9.66,9.66,0,0,1,414.22,314.25Z" transform="translate(-48.11 -196.35)" style="fill:#901a1c"/><path d="M414.22,314.25c-2.79,1.77-6.33.14-9.12,2a2.61,2.61,0,0,1-.89-1.25,5.89,5.89,0,0,1,0-3.09,48.24,48.24,0,0,0,1.75-8.25c.23-.63.44-1.45,1-1.64,8.1-2.6,7.79-9.22,7.62-15.79,0-.83,0-1.65-.15-2.48a13.62,13.62,0,0,1,1.67-6.65C417.69,289.59,418.13,302,414.22,314.25Z" transform="translate(-48.11 -196.35)" style="fill:#9b1d1f"/><path d="M246.13,392.27c-1.76-.78-2.25-3.61-4.86-3a19.88,19.88,0,0,0,2-10c1.53,1.78,1.7,4.89,4.92,5,1.93,3.88,4.31,7.27,9,8,1.37,4.51,5.33,6.07,9,7.93l2,2.94c.54,1.14-.12,1.66-1,2.05l-3-1A62,62,0,0,1,246.13,392.27Z" transform="translate(-48.11 -196.35)" style="fill:#7b1415"/><path d="M400.1,333.23c.74,2.54,3.72,1.34,5,3-5,7.49-7.33,16.56-14,23a3.9,3.9,0,0,0-.06-1,14.37,14.37,0,0,1,0-10.07,3.63,3.63,0,0,1,.66-3.68,52.67,52.67,0,0,0,5.76-9.63C398,333.91,398.61,332.81,400.1,333.23Z" transform="translate(-48.11 -196.35)" style="fill:#941b1e"/><path d="M416.17,277.09l-.09,7.15c-.79,4-3.67,5.66-7.2,6.67-2.4.68-4.95.72-7.29,1.64-2.51.4-4-1.51-5.82-2.62-1-1-2.34-1.91-1.67-3.69.52-2.69,2.67-1.88,4.33-2,2.78-.19,5.69.2,8.31-.51,6.26-1.7,8.13-5.07,8.45-13.79C416.49,272.19,415.76,274.72,416.17,277.09Z" transform="translate(-48.11 -196.35)" style="fill:#b32024"/><path d="M203.21,430.23c-10.92.18-21.38,8-23,17.22-2.29-7.89.17-13.86,7.31-17.78A32.63,32.63,0,0,1,198.15,426C203.59,425.64,204,426,203.21,430.23Z" transform="translate(-48.11 -196.35)" style="fill:#b22024"/><path d="M241.18,403.22a23.92,23.92,0,0,0-11.76,2.9c-3.21,1.64-6.43,3.32-10.21,3.06,3.25-6.38,8.92-9.94,15.06-13C238.53,396.62,239.82,400,241.18,403.22Z" transform="translate(-48.11 -196.35)" style="fill:#aa1f23"/><path d="M270.21,509.13c5.25-6.7,12.73-9.55,20.51-11.87,2.51-.74,5-1.37,7.58-2a12.34,12.34,0,0,1-4.66,6.13c-5.15,3.29-10.76,5.63-16.36,8A7.59,7.59,0,0,1,270.21,509.13Z" transform="translate(-48.11 -196.35)" style="fill:#b68b68"/><path d="M203.21,430.23c.49-4-2.35-4.05-5.06-4.23,3.13-1.86,7.43.56,10.16-2.77a10.83,10.83,0,0,0,1.95,6,2.52,2.52,0,0,1,1.91,1.46c.66,3.13,2.71,6.27-.1,9.37l-4.7,1.06Q205.28,435.7,203.21,430.23Z" transform="translate(-48.11 -196.35)" style="fill:#7d1516"/><path d="M298.28,271.23c-.65,6.19-2.86,7.31-10,5.08a18.61,18.61,0,0,0,1-13.07l5.82.09,3.07,5.94Z" transform="translate(-48.11 -196.35)" style="fill:#7a1415"/><path d="M270.21,509.13c4.68.52,8.48-2,12.49-3.72,3.58-1.54,6.84-3.9,10.94-4.06-2.67,5.52-8.23,8-12.42,12-4.64.41-8.37-1.94-12.17-4.07Z" transform="translate(-48.11 -196.35)" style="fill:#b08665"/><path d="M300.2,240.25c-.55,3.6-4.18,5.47-5,8.91a14.41,14.41,0,0,0-5.08,6.83,3.21,3.21,0,0,1-1,.14,43.88,43.88,0,0,1,3.13-17.91C295.21,237.65,298.35,236.4,300.2,240.25Z" transform="translate(-48.11 -196.35)" style="fill:#7b1415"/><path d="M300.2,240.25c-2.18-2.52-5.77.47-8-2a22.63,22.63,0,0,1,2.95-7c.53,3.34,2.75,4.31,5.75,4,3.46-.41,1.79-3.26,2.29-5.08.17-.63.41-1.24.62-1.85,2.71,1.92,1.38,5,2.1,7.45a4.83,4.83,0,0,0,2.61,2.66c1.16.6,2.54.68,3.6,1.5a1.47,1.47,0,0,1,.34,1.24C308.34,241.67,304.07,243.85,300.2,240.25Z" transform="translate(-48.11 -196.35)" style="fill:#e42026"/><path d="M341.46,211.13c-9.85.34-19.36,4-29.35,3.09C321.45,208.94,331.22,207.8,341.46,211.13Z" transform="translate(-48.11 -196.35)" style="fill:#de2026"/><path d="M393.74,620.16h-4.46c-2.78,0-2-2.08-2-3.55s-.66-3.51,2.1-3.46,5.61.07,8.42,0c2.37-.06,4,1,4.06,3.31.07,2.59-1.52,3.85-4.15,3.73C396.39,620.11,395.06,620.16,393.74,620.16Z" transform="translate(-48.11 -196.35)" style="fill:#fbfafa"/><path d="M392.87,601.17c-1.52-.88-4.7,1.66-5.48-1.63-.67-2.81-1-6.3,4.06-5.42a20.65,20.65,0,0,0,5,0c2.65-.19,4.34.92,4.24,3.58s-1.77,3.76-4.42,3.47A33.48,33.48,0,0,0,392.87,601.17Z" transform="translate(-48.11 -196.35)" style="fill:#f9f9f8"/><path d="M210.24,607.55c0,1.5,0,3,0,4.49-.15,5-2.39,7.05-7.52,7.12s-7.81-1.93-8.08-6.65a89.22,89.22,0,0,1,0-11c.32-4.6,3.05-6.54,8.34-6.38,4.87.16,7.06,2.23,7.23,6.91C210.3,603.89,210.24,605.72,210.24,607.55Z" transform="translate(-48.11 -196.35)" style="fill:#fcfcfc"/><path d="M465,607c0,1.5,0,3,0,4.49-.09,5.43-2.2,7.56-7.51,7.64-5.61.09-8-2.08-8.14-7.63-.09-3-.1-6,0-9,.19-5.27,2.5-7.38,7.87-7.39s7.64,2.09,7.76,7.38C465,604,465,605.54,465,607Z" transform="translate(-48.11 -196.35)" style="fill:#fcfcfc"/><path d="M400.1,333.23c-2.46,5.32-5.8,10.11-9,15a24.08,24.08,0,0,1-8-7c-4-6.37-6.66-13.53-11.89-19.14a1.66,1.66,0,0,1,0-2.26c2.68-1.72,6.15-.58,8.8-2.42a6.67,6.67,0,0,1,2.39-.31c5.2,1.69,10.76,1.75,16,3.58,1.74.61,3.49,1,4.68,2.55C403.19,326.88,400.76,329.79,400.1,333.23Z" transform="translate(-48.11 -196.35)" style="fill:#9b2821"/><path d="M371.12,320.23c5.44,6.17,10.56,12.53,12,21-2.15.78-5.61-2.77-6.57,2.82-.39,2.29-2.61-1.72-4.41-1.82-1.7-.74-4.05-.19-4.94-2.52-1.79-6.34-6.19-10.92-10.52-15.56.18-1.64.73-3,2.47-3.57C363.16,321.49,367.09,319,371.12,320.23Z" transform="translate(-48.11 -196.35)" style="fill:#96211f"/><path d="M368.13,339.22c.55,2,3,1.6,4,3-2,.28-1.91,1.8-2,3.3-.39,5.78-.42,5.79-5.41,3.49-.94-.44-1.79-.82-2.57.21-2.54-2.06-1.85-5.73-4-8-1.48-1.81-2.39-4.06-.84-5.9s3.71-.37,5.56.25A13,13,0,0,1,368.13,339.22Z" transform="translate(-48.11 -196.35)" style="fill:#981c1f"/><path d="M368.13,339.22c-3.46-.57-6.15-3.24-10-3.56v5.56c-3.39-1.18-7.82.22-10-4-1-5.48-3.68-9.73-9-12a11.15,11.15,0,0,1,6-3c4.38-1.6,8.43-1.3,12,2C363.39,327.33,366.33,332.86,368.13,339.22Z" transform="translate(-48.11 -196.35)" style="fill:#921c1d"/><path d="M256.23,441.46l6.07,4.59c.93,3.17-1.19,4.73-3.48,5.69-13.84,5.82-27.41,12.24-41,18.58a2.44,2.44,0,0,1-1.93.05,6.83,6.83,0,0,1-1.18-.85c-5.16-5.62-5.16-5.67.48-10.55a8.93,8.93,0,0,0,5.32-.88C232.47,452.67,244.77,448,256.23,441.46Z" transform="translate(-48.11 -196.35)" style="fill:#ebcea8"/><path d="M279.19,458.26a21.22,21.22,0,0,1,7,4.93c1.27,3.32-1.47,3.76-3.38,4.11-6.23,1.15-11.55,4.13-16.72,7.52a7,7,0,0,1-2.66,1.35c-9.08,1.34-16.53,6.73-24.81,10.05a6.1,6.1,0,0,1-4.79.12c-2.4-.42-3.32-2.44-4.52-4.17,1-1.5,2.67-1.88,4.13-2.6,11.1-5.49,22.2-11,33.79-15.44C271.42,462.53,274.76,459.29,279.19,458.26Z" transform="translate(-48.11 -196.35)" style="fill:#d6b390"/><path d="M246,495.3a6.14,6.14,0,0,1-4.1-2.93c2.75-3.05,6.55-4.36,10.13-5.95,14.19-6.28,28.61-12,42.29-19.43,2.63.35,5.13,1,6.92,3.19.3,2.24-1.54,2.79-2.95,3.43q-23.31,10.58-46.52,21.4A7.05,7.05,0,0,1,246,495.3Z" transform="translate(-48.11 -196.35)" style="fill:#caa481"/><path d="M224.19,448q7.31-9.9,14.61-19.79c1.38-1.89,2.88-2,4.43-.29,2.7,3,5.35,6.11,8,9.17.54,2.15-1,3.12-2.48,3.67-6.62,2.49-12.67,6.25-19.28,8.72C227.65,450.21,225.07,451.66,224.19,448Z" transform="translate(-48.11 -196.35)" style="fill:#f4dbb5"/><path d="M233.85,486.34c5.51-2.73,11.76-3.86,16.7-7.76a5.81,5.81,0,0,1,3-1.44c7.92-.83,14.34-5.27,21.07-8.92a15.83,15.83,0,0,1,7-2.06c2-.08,4-.43,4.51-3l3,2c.26,3.3-2.51,4.11-4.59,5.09-13.11,6.17-26.17,12.45-39.41,18.36-2.24,1-4.65,1.9-7.16.62Z" transform="translate(-48.11 -196.35)" style="fill:#d1ae8a"/><path d="M238,489.28c5.14-.84,9.65-3.26,14.22-5.58,3.67-1.87,8.08-2.73,11.3-4.81,8.2-5.32,18.21-7.09,25.64-13.68,1.93-.08,4-.53,5.08,1.78-.23,2.55-2.51,2.86-4.18,3.73-12.19,6.31-24.84,11.59-37.52,16.79-3.64,1.5-6.56,4.56-10.72,4.86C240.28,491.71,238.76,491,238,489.28Z" transform="translate(-48.11 -196.35)" style="fill:#d0ab88"/><path d="M279.19,458.26c-2.22,2.86-5.42,4.34-8.58,5.71-12.77,5.54-25.49,11.19-37.94,17.45a13.89,13.89,0,0,1-3.34.75l-2.25-1.89c.68-3,3.25-4.06,5.57-5.3,8.82-4.71,18.29-8,27.33-12.19,5.11-2.39,10-5.19,15.2-7.43Z" transform="translate(-48.11 -196.35)" style="fill:#dbb894"/><path d="M246,495.3c5.31-.41,9.49-3.75,14.15-5.74,13.05-5.55,25.83-11.73,38.69-17.69a15.76,15.76,0,0,0,2.4-1.69c1.38.15,2.92-.51,4.1.76-2.62,5.14-8,6.05-12.56,8.24-12.66,6.1-26.41,9.69-38.53,17-1.12.68-2.48,1-3.12,2.34Z" transform="translate(-48.11 -196.35)" style="fill:#c6a07d"/><path d="M275.18,455.36c-3.16,4.65-8.49,5.81-13.13,8-9.69,4.5-19.53,8.68-29.24,13.14a41.6,41.6,0,0,0-5.73,3.81l-4.82-4.07.36-.65q11.69-5.52,23.51-10.75c8.65-3.84,17.36-7.58,26.05-11.34A3.68,3.68,0,0,1,275.18,455.36Z" transform="translate(-48.11 -196.35)" style="fill:#ddbc98"/><path d="M256.23,441.46c-2.35,4.88-7.63,5.41-11.72,7.46-8.24,4.14-16.84,7.57-25.28,11.3-1.75.77-3.5,1.77-4-1.25a15,15,0,0,1,5.64-7c8.83-1.15,16.44-5.47,24.21-9.37,2.94-1.48,5.8-3.18,9.3-2.64Z" transform="translate(-48.11 -196.35)" style="fill:#efd3ad"/><path d="M212.07,440.1c.79-3.38-1.28-6.49-.95-9.83,2.91-4.62,13-6.48,17-3.1a3,3,0,0,1,1.17,3.06c-3.34,4-5.55,8.93-10,12C217.79,438.44,214.42,441,212.07,440.1Z" transform="translate(-48.11 -196.35)" style="fill:#bf2126"/><path d="M266.28,449.05l3.07,2.9c.21,3.28-2.7,3.42-4.6,4.29-13.3,6.06-26.78,11.7-40,18A9.92,9.92,0,0,0,222.4,476l-.14.2-5.15-4.95c5.83-3.46,12.2-5.83,18.35-8.58C245.71,458.08,255.78,453.08,266.28,449.05Z" transform="translate(-48.11 -196.35)" style="fill:#e3c49e"/><path d="M266.28,449.05c-.27.58-.4,1.5-.84,1.7Q243,460.91,220.55,470.89c-1,.45-2.29.26-3.44.37l-1.23-.89c7.19-5.57,16-7.87,24-11.75,5.94-2.87,11.71-6.3,18.23-7.93,2.34-.59,3.29-2.63,4.16-4.64A5.68,5.68,0,0,1,266.28,449.05Z" transform="translate(-48.11 -196.35)" style="fill:#e7c8a2"/><path d="M222.4,476c0-2.66,2.31-3,4-3.85,12.52-6.42,25.58-11.63,38.43-17.33,1.63-.72,3.47-1.21,4.54-2.88l2.83,1.52c-4.62,5.57-11.74,6.69-17.82,9.27-7.47,3.17-14.61,7-22.12,10.06C229,474.11,225.88,475.54,222.4,476Z" transform="translate(-48.11 -196.35)" style="fill:#e0c09c"/><path d="M229.28,430.23c-3.83-4.39-11.46-4.38-18.16,0l-.86-1c-.55-4.51,1.4-6.45,6-7.25,4.82-.86,9.58-.67,14.37-.81,1.71,0,3.43-.08,3.78,2.21C233.55,426.35,231.05,428,229.28,430.23Z" transform="translate(-48.11 -196.35)" style="fill:#ba2125"/><path d="M270.17,434.23c3.91,3.2,9.18,4.52,12.27,8.87-1.73,2.54-4.73,2.72-7.2,3.88-4.32-2.85-9.15-5.07-12.07-9.67C264,432.89,266.75,432.79,270.17,434.23Z" transform="translate(-48.11 -196.35)" style="fill:#c62227"/><path d="M254.33,440c-8.49,3.95-17,7.94-25.49,11.81-2.58,1.17-5.31,2.05-8,.2l3.37-4a2.62,2.62,0,0,0,3.52.83q11.21-5,22.34-10.22c.52-.24.81-1,1.21-1.52C253.25,437.06,254.2,438.09,254.33,440Z" transform="translate(-48.11 -196.35)" style="fill:#f2d6b1"/><path d="M275.24,447c1.29-3.36,4.68-2.8,7.19-3.88,3.91,3,9.51,3,12.82,7.07-2.8,1.73-6.94.31-9,3.83A30.12,30.12,0,0,1,275.24,447Z" transform="translate(-48.11 -196.35)" style="fill:#cc2227"/><path d="M270.17,434.23c-2.63.37-5.42.35-7,3.08-4.13-2.1-7.25-5.34-10-8.94,1.72-4.3,4.79-3.55,8-2.14C264.56,428.45,268.35,430.23,270.17,434.23Z" transform="translate(-48.11 -196.35)" style="fill:#bf2126"/><path d="M261.16,426.23a13,13,0,0,0-8,2.14l-6.94-7c1.27-3.36,4.49-2.39,6.94-3.14C255.61,421.09,259.43,422.61,261.16,426.23Z" transform="translate(-48.11 -196.35)" style="fill:#b92125"/><path d="M382.12,318.23h-2c-1.86.68-3.18-.52-4.5-1.41a6.15,6.15,0,0,0-6.5-.64c-3.43,1.57-6.39.53-9-1.95-1.79-3.07-7-.65-8-5a8.67,8.67,0,0,0,8-3A3.65,3.65,0,0,1,363,305c4.22,0,7.67,3,11.86,3.12,3.67,2,8.2,2.67,10.52,6.78C385.78,317.42,383.26,317.16,382.12,318.23Z" transform="translate(-48.11 -196.35)" style="fill:#a42422"/><path d="M363.13,306.23h-3c-3.34.5-5-2.67-7.81-3.57-4.66-1.51-9.72-1.23-14.17-3.43,2-4.76,6.47-2.61,9.82-3.36,1.27-.28,2.83.08,4.16-.64,5.45-.79,9.48,1.44,12.46,5.89A5.52,5.52,0,0,1,363.13,306.23Z" transform="translate(-48.11 -196.35)" style="fill:#ad2224"/><path d="M227.27,323.23c6.76-2,13.52-2.77,20.57-1.19,4,.9,8.2-.27,12.32-.74a447.27,447.27,0,0,1,56-3.18A45.91,45.91,0,0,0,328.8,316a6.3,6.3,0,0,1,6.36,1.22l3,1c-1.24,2.54-3.59,2-5.68,2-16.25-.26-32.33,2.43-48.62,2.28-15.49-.14-31,1.78-46.5,2.72C233.86,325.42,229.76,328.3,227.27,323.23Z" transform="translate(-48.11 -196.35)" style="fill:#991c1f"/><path d="M360.14,314.23c3.9,1,7.43,1.57,11.63-.35,2.81-1.28,5.46,2.9,8.35,4.35-2.35,3.58-6,1.38-9,2-3.92,1.19-7.76,3.42-12,1-2.63-1.13-4.73-2.62-4-6Z" transform="translate(-48.11 -196.35)" style="fill:#9d2220"/><path d="M355.14,315.23l4,6-2,3-12-2c.11-1.72-1.41-2.63-2-4C346.69,315.37,351,315.55,355.14,315.23Z" transform="translate(-48.11 -196.35)" style="fill:#991c1f"/><path d="M267.23,405.2l1-2.05,7.88,3.08c.13,2.32-.63,3.6-3.11,2.36C271.05,407.58,268.8,407,267.23,405.2Z" transform="translate(-48.11 -196.35)" style="fill:#89181a"/><path d="M335.16,283.24c2-1.84,6,1.1,7-3,2.87-2.5,6.06-.62,9.09-.61a50.36,50.36,0,0,1,9.38,1.25c3.41,1,7,1.48,10,3.68,1.62,2,2.86,4.1,1.73,6.8-6.74-.45-13.51,3.91-20.23-.12l-7-2C342.48,286.13,337.71,286.54,335.16,283.24Z" transform="translate(-48.11 -196.35)" style="fill:#bc2326"/><path d="M352.15,291.24c6.17,1.39,12.33-2.46,18.52-.1a5,5,0,0,0,1.45.09c1.47-.67,2.55,0,3.51,1a4.35,4.35,0,0,1,.2,3.82c-1.4,2.39-4,2.78-6.24,3.86-1.8.49-3.54,1.3-5.46,1.29-3.42-3.14-7.64-4.7-12-6C352.14,293.9,352.15,292.57,352.15,291.24Z" transform="translate(-48.11 -196.35)" style="fill:#b42725"/><path d="M361.13,282.24l-19-2a6.35,6.35,0,0,0-3-3c1-3.69,3.89-4.48,7.18-4.42,4.27.07,8.53.27,12.8.42.13,2,1.54,2,3,2C363.59,277.83,362.9,280.11,361.13,282.24Z" transform="translate(-48.11 -196.35)" style="fill:#c32327"/><path d="M327.17,276.24a4,4,0,0,0-3,1.5c-2,2.27-4.24,2.39-6.32.28-1.9-1.93-4.47-2.5-6.68-3.78,4.52.79,8.57-1.5,12.9-2C327,272,329.21,272.52,327.17,276.24Z" transform="translate(-48.11 -196.35)" style="fill:#c32226"/><path d="M246.13,392.27c6.3,3.58,12.71,7,18.09,12-2.24.92-4.44,2-7,2C252.18,402.66,249.19,397.44,246.13,392.27Z" transform="translate(-48.11 -196.35)" style="fill:#ae2023"/><path d="M316.06,220.18c3.18-2.4,6.76-.45,10.11-.91,4,1.09,3.89,4.3,3,7.13-1.41,4.7-2.57,9.51-4.71,14-1.23.78-2.58.22-3.87.32-2.3-1.44-1.28-3.52-.89-5.34.74-3.56,1.75-7.06,2.38-10.65.21-1.22.89-2.73-1.27-3a16.55,16.55,0,0,1-2.9-.26A3.06,3.06,0,0,1,316.06,220.18Z" transform="translate(-48.11 -196.35)" style="fill:#f58e8e"/><path d="M320.13,240.12l4,0a4.94,4.94,0,0,1,2.62-1.23,18.85,18.85,0,0,0,2.11-.32c3.42-3.55,4.4-8.21,5.69-12.71.44-1.53.18-3.29,1.58-4.49a3.73,3.73,0,0,1,3,2c.63.79,1.25,1.8.95,2.69-1.72,5-2.33,10.54-6.89,14.15l-1,1c-6.56.86-13.1,0-19.65-.14a7.28,7.28,0,0,0-.37-.8C314.75,238.16,317.42,238.21,320.13,240.12Z" transform="translate(-48.11 -196.35)" style="fill:#f26d6c"/><path d="M305.06,237.31c-2.3-2.77-.58-6.07-1.21-9.06a8.37,8.37,0,0,1,5.11-5.09c1.85-1,2.71.1,3.26,1.65C313.66,228.82,309.41,236.22,305.06,237.31Z" transform="translate(-48.11 -196.35)" style="fill:#f9bdbc"/><path d="M305.06,237.31c3.66-2.08,4.71-5.9,5.92-9.45.57-1.69,1-4.15-2-4.7a2.75,2.75,0,0,1,3.08-2c3.41-.94,4.61,1.36,3.87,3.74-1.51,4.83-1.92,10-4.57,14.49a4,4,0,0,1-3.33-.09A2.68,2.68,0,0,1,305.06,237.31Z" transform="translate(-48.11 -196.35)" style="fill:#f9b6b5"/><path d="M336.14,221.42c.62,6.53-2.67,12-5,17.64a2.15,2.15,0,0,1-2,1.15c-2.11-2.49-.72-5.14,0-7.51,1.26-4.06,2.74-8,3-12.32C333.7,220,334.91,220.72,336.14,221.42Z" transform="translate(-48.11 -196.35)" style="fill:#f37676"/><path d="M311.17,239.22a36.69,36.69,0,0,1,3.15-12.95c1.06-2.55,1.19-4.6-2.28-5.08,1-1.56,2.69-.66,4-1l2.1.11a3,3,0,0,1,.53,3.23c-1.77,4.91-1.77,10.26-3.73,15.12A2.69,2.69,0,0,1,311.17,239.22Z" transform="translate(-48.11 -196.35)" style="fill:#f8acac"/><path d="M332.18,220.38c1.47,2.68,1.17,5.28,0,8a32.42,32.42,0,0,0-3,11.82l-2,0a4.39,4.39,0,0,1-1.08-4.14c1.13-5.43,3.14-10.64,4.19-16.09Z" transform="translate(-48.11 -196.35)" style="fill:#f37e7e"/><path d="M344.25,232.25c0,.67,0,1.33,0,2a14.66,14.66,0,0,1-6,4.19c-1.81-2.33-.74-4.81-.06-7.07s1.24-4.76,2-7.11C342.91,226.21,344.55,228.73,344.25,232.25Z" transform="translate(-48.11 -196.35)" style="fill:#f15d5b"/><path d="M330.26,220c.84,7-4.17,13.16-3.11,20.23h-3c0-4.4,1.93-8.28,3.27-12.32,1-3,1.73-6.09-1.24-8.58C327.59,219.14,329,218.9,330.26,220Z" transform="translate(-48.11 -196.35)" style="fill:#f48584"/><path d="M340.15,224.26q-1,7.1-1.91,14.18c-1.25,1.86-3.09,2-5.07,1.77,1.86-5.66,5.87-10.56,5.94-16.84Z" transform="translate(-48.11 -196.35)" style="fill:#f26765"/><path d="M330.17,444.2c-1.22-6.93-4.18-9.27-11.93-7.83-7,1.3-14.1,0-21,1.81-3-.72-5.7-2-7.32-4.83a21.35,21.35,0,0,1,9.14-2c10.45-.1,20.84-1.78,31.32-1.14,2.52.15,5-.18,6.19,2.89a6.84,6.84,0,0,1-1.35,7.42C333.87,442.07,332.65,444.05,330.17,444.2Z" transform="translate(-48.11 -196.35)" style="fill:#c32226"/><path d="M216.28,277.24a20.09,20.09,0,0,1,8.7,1.36c4.28,1.58,8.52,2.45,12.7-.51,1.71-1.21,3.7-.6,5.71-.4,6.08.62,12.38,2.05,17.82-2.4,1.9,1.08,4.09.76,6.1,1.24s3.82,1.1,4,3.56c-2.27,2-5,2.15-7.89,2.16-9.4,0-18.79-.36-28.11,1.82-5.25,1.23-10.5-.31-15.41-2.54C218.06,280.68,216.44,279.56,216.28,277.24Z" transform="translate(-48.11 -196.35)" style="fill:#c12226"/><path d="M361.13,282.24c-.29-2.43.43-4.7,1-7,6.75,1.72,13.73,2.66,20,6,.67,2.26-.6,3.83-1.92,5.39-3.62,1.47-6.69-1.07-10.07-1.4Z" transform="translate(-48.11 -196.35)" style="fill:#c12927"/><path d="M380.12,286.23c-.39-2.08,1.08-3.43,2-5h1c4.3.26,7.53,2.89,11,5,.67,1,1.34,2,2,3-3,2.7-6.55,2.65-10.21,2.08C383.47,290.18,381,289.14,380.12,286.23Z" transform="translate(-48.11 -196.35)" style="fill:#bf2d27"/><path d="M382.12,318.23l3-3A11.38,11.38,0,0,1,397.52,313c2.46,1,5.19,1,7.57,2.23,0,.34,0,.67,0,1l-2,7C396.18,321.19,388.88,320.85,382.12,318.23Z" transform="translate(-48.11 -196.35)" style="fill:#a22c22"/><path d="M401.1,292.23c.26-2.06,1.81-2,3.31-2,4.84-.15,8.9-1.83,11.67-6,0,2-.14,4,0,5.95.5,6.27-.78,11.26-8.1,12.43-.38.06-.62,1.05-.92,1.61-3-.08-3-2.81-4-4.63C402.81,297,400.14,295.11,401.1,292.23Z" transform="translate(-48.11 -196.35)" style="fill:#ab2023"/><path d="M405.09,315.23c-1,.43-2.08,1.3-3.23.74a19.49,19.49,0,0,0-16.75-.74c-2.81-2.86-7-3.45-10-6,.34-3.87,3.13-3.11,5.38-2.57,3.58.84,7,1.22,10.43-.51,6-1,10.53,1.53,14.17,6.08Z" transform="translate(-48.11 -196.35)" style="fill:#a82b23"/><path d="M405.1,312.23c-4.76-1.39-8.23-6.42-14-5a1.32,1.32,0,0,1-.14-1.35c2-1.92,1.23-5.12,3.21-7.07a23.5,23.5,0,0,1,9.91.42l3,5C407.18,307.09,407,309.88,405.1,312.23Z" transform="translate(-48.11 -196.35)" style="fill:#af2e25"/><path d="M404.09,299.23c-3.33,1.85-6.66.89-10,0-8.48,4.17-12.59,3.52-19-3v-4c3-2.38,7,.55,10-2,3.75.6,7.3-1,11-1,2.3-.06,3.17,2.27,5,3C401.84,294.68,404.46,296.31,404.09,299.23Z" transform="translate(-48.11 -196.35)" style="fill:#b72f26"/><path d="M311.17,239.22c1.11,0,2.27.16,3-1,2.1-4.25,2.66-9,4.4-13.39.67-1.69,1.11-3.39,2.57-4.59,2.22-.17,3.85-.19,2.92,3.08-1.56,5.52-2.65,11.18-3.95,16.77l-8,.18c-1.4-.22-3,.36-4.12-1Z" transform="translate(-48.11 -196.35)" style="fill:#f69b9b"/><path d="M391.11,306.23v1c-3.44,3.44-7.33,1.7-11,.77-2-.51-3.8-1.2-5,1.23-4.52,1.12-7.73-3.05-12-3a8.44,8.44,0,0,1,1-5c1-2.28,3.07-2,5-2,4.47,2.5,9.46,2.17,14.3,2.45A9,9,0,0,1,391.11,306.23Z" transform="translate(-48.11 -196.35)" style="fill:#ac2724"/><path d="M385.11,290.24c.2,3.33-2.1,3.13-4.26,2.91-1.92-.19-3.82-.6-5.73-.92l-3-1c-.66-2-1.33-4-2-6,3.62-2.58,6.56,1.59,10,1C381.77,287.59,384,288.2,385.11,290.24Z" transform="translate(-48.11 -196.35)" style="fill:#bb2b26"/><path d="M391.11,306.23c-3.83-1.62-7.16-5.72-11.74-3.76-4.73,2-7.34-.58-10.24-3.24,1.5-2,4.09-1.81,6-3,5.8,4.39,12.38,3.76,19,3C393.17,301.6,396.41,305.75,391.11,306.23Z" transform="translate(-48.11 -196.35)" style="fill:#b02a25"/><path d="M321.16,220.27c-1.54,6.3-3.13,12.58-7,18,.5-6.17,2.34-12,4-18Z" transform="translate(-48.11 -196.35)" style="fill:#f7a5a6"/></svg>